<?xml version="1.0" standalone="no"?><svg xmlns="http://www.w3.org/2000/svg" viewBox="0 0 1440 320"><path fill="#0099ff" fill-opacity="0.15" d="M0,320L17.1,288C34.3,256,69,192,103,149.3C137.1,107,171,85,206,80C240,75,274,85,309,101.3C342.9,117,377,139,411,170.7C445.7,203,480,245,514,256C548.6,267,583,245,617,213.3C651.4,181,686,139,720,128C754.3,117,789,139,823,154.7C857.1,171,891,181,926,165.3C960,149,994,107,1029,85.3C1062.9,64,1097,64,1131,74.7C1165.7,85,1200,107,1234,106.7C1268.6,107,1303,85,1337,80C1371.4,75,1406,85,1423,90.7L1440,96L1440,320L1422.9,320C1405.7,320,1371,320,1337,320C1302.9,320,1269,320,1234,320C1200,320,1166,320,1131,320C1097.1,320,1063,320,1029,320C994.3,320,960,320,926,320C891.4,320,857,320,823,320C788.6,320,754,320,720,320C685.7,320,651,320,617,320C582.9,320,549,320,514,320C480,320,446,320,411,320C377.1,320,343,320,309,320C274.3,320,240,320,206,320C171.4,320,137,320,103,320C68.6,320,34,320,17,320L0,320Z"></path></svg>