<?xml version="1.0" encoding="UTF-8"?>
<svg id="Ebene_2" data-name="Ebene 2" xmlns="http://www.w3.org/2000/svg" xmlns:xlink="http://www.w3.org/1999/xlink" viewBox="0 0 39.1 39.1">
  <defs>
    <style>
      .cls-1 {
        clip-path: url(#clippath);
      }

      .cls-2, .cls-3 {
        fill: none;
      }

      .cls-2, .cls-4 {
        stroke-width: 0px;
      }

      .cls-3 {
        stroke: #ffea43;
        stroke-width: 1.5px;
      }

      .cls-4 {
        fill: #ffea43;
      }
    </style>
    <clipPath id="clippath">
      <rect class="cls-2" width="39.1" height="39.1"/>
    </clipPath>
  </defs>
  <g id="Ebene_1-2" data-name="Ebene 1">
    <g class="cls-1">
      <circle class="cls-3" cx="19.55" cy="19.55" r="18.8"/>
      <path class="cls-4" d="M25.75,26.78c-.38,1.11-1.04,1.92-1.93,2.33-.42.19-.87.29-1.34.29-.5,0-1.02-.11-1.56-.32-2.66-1.08-4.98-2.6-6.91-4.5,0,0,0,0-.01-.01-1.91-1.93-3.42-4.26-4.51-6.91-.42-1.03-.43-2.03-.04-2.9.41-.89,1.21-1.56,2.33-1.93.5-.17.98-.16,1.44,0,1.03.38,3.2,3.33,3.26,4.44.05,1.06-.74,1.6-1.11,1.86-.32.22-.75.14-.97-.18-.22-.32-.14-.75.18-.97.45-.3.52-.44.51-.64-.07-.6-1.81-2.97-2.36-3.21-.16-.06-.32-.06-.51,0-.74.25-1.26.66-1.5,1.19-.23.51-.21,1.12.06,1.79,1.01,2.49,2.43,4.66,4.2,6.45,0,0,0,0,0,0,1.8,1.78,3.97,3.19,6.46,4.21.67.27,1.29.29,1.79.06.53-.24.94-.76,1.19-1.5.06-.19.07-.35,0-.51-.24-.54-2.61-2.28-3.22-2.36-.19,0-.33.06-.63.51-.22.32-.65.4-.97.18-.32-.22-.4-.65-.18-.97.26-.38.8-1.17,1.86-1.12,1.11.06,4.06,2.23,4.45,3.26.17.46.17.94,0,1.44"/>
      <path class="cls-4" d="M18.79,14.48c0-.39.31-.7.7-.7,2.62,0,4.75,2.13,4.75,4.75,0,.39-.31.7-.7.7s-.7-.31-.7-.7c0-1.85-1.5-3.35-3.35-3.35-.39,0-.7-.31-.7-.7"/>
      <path class="cls-4" d="M27.58,19.22c-.39,0-.7-.31-.7-.7,0-1.98-.77-3.84-2.17-5.23-1.4-1.4-3.26-2.17-5.24-2.17-.38,0-.7-.31-.7-.7s.31-.7.7-.7c2.35,0,4.56.91,6.22,2.58s2.58,3.87,2.58,6.22c0,.39-.31.7-.7.7"/>
    </g>
  </g>
</svg>