<?xml version="1.0" encoding="UTF-8"?>
<svg id="Ebene_2" data-name="Ebene 2" xmlns="http://www.w3.org/2000/svg" xmlns:xlink="http://www.w3.org/1999/xlink" viewBox="0 0 20.3 25.7">
  <defs>
    <style>
      .cls-1 {
        clip-path: url(#clippath);
      }

      .cls-2 {
        stroke-width: 0px;
      }

      .cls-2, .cls-3, .cls-4 {
        fill: none;
      }

      .cls-3 {
        stroke-linecap: round;
        stroke-width: 1.3px;
      }

      .cls-3, .cls-4 {
        stroke: #ffea43;
        stroke-linejoin: round;
      }

      .cls-4 {
        stroke-width: 1.2px;
      }
    </style>
    <clipPath id="clippath">
      <rect class="cls-2" width="20.3" height="25.7"/>
    </clipPath>
  </defs>
  <g id="Ebene_1-2" data-name="Ebene 1">
    <polygon class="cls-4" points="10.2 3.8 8.7 6.9 5.2 7.3 7.8 9.7 7.1 13.1 10.2 11.5 13.2 13.1 12.6 9.7 15.1 7.3 11.6 6.9 10.2 3.8"/>
    <g class="cls-1">
      <path class="cls-3" d="M10.2.6c4.5,0,8.1,3.6,8.1,8.1s-3.6,8.1-8.1,8.1S2.1,13.2,2.1,8.7,5.7.6,10.2.6ZM4,14.9l-3.4,6.8h3.4l1.4,3.4,4.1-8.1h1.4l3.4,8.1,2-3.4h3.4l-3.4-6.8"/>
    </g>
  </g>
</svg>