<?xml version="1.0" encoding="UTF-8"?>
<svg id="Ebene_2" data-name="Ebene 2" xmlns="http://www.w3.org/2000/svg" xmlns:xlink="http://www.w3.org/1999/xlink" viewBox="0 0 19.3 25.5">
  <defs>
    <style>
      .cls-1 {
        clip-path: url(#clippath);
      }

      .cls-2, .cls-3, .cls-4 {
        fill: none;
      }

      .cls-2, .cls-5 {
        stroke-width: 0px;
      }

      .cls-3 {
        stroke-linecap: round;
      }

      .cls-3, .cls-4 {
        stroke: #ffea43;
      }

      .cls-4 {
        stroke-width: 1.3px;
      }

      .cls-5 {
        fill: #ffea43;
      }
    </style>
    <clipPath id="clippath">
      <rect class="cls-2" width="19.3" height="25.5"/>
    </clipPath>
  </defs>
  <g id="Ebene_1-2" data-name="Ebene 1">
    <g class="cls-1">
      <g>
        <rect class="cls-4" x=".6" y=".6" width="17.8" height="23.3" rx="1" ry="1"/>
        <path class="cls-5" d="M5.4,12h.7c.4,0,.7.3.7.7s-.3.7-.7.7h-1.3c-.4,0-.7-.3-.7-.7s.3-.7.7-.7h.6Z"/>
        <path class="cls-5" d="M9.5,13.4h-.7c-.4,0-.7-.3-.7-.7s.3-.7.7-.7h1.3c.4,0,.7.3.7.7s-.3.7-.7.7h-.6Z"/>
        <path class="cls-5" d="M13.6,12.1h.7c.4,0,.7.3.7.7s-.3.7-.7.7h-1.4c-.4,0-.7-.3-.7-.7s.3-.7.7-.7h.7"/>
        <path class="cls-5" d="M5.4,8.5h.7c.4,0,.7.3.7.7s-.3.7-.7.7h-1.3c-.4,0-.7-.3-.7-.7s.3-.7.7-.7h.6Z"/>
        <path class="cls-5" d="M9.5,9.9h-.7c-.4,0-.7-.3-.7-.7s.3-.7.7-.7h1.3c.4,0,.7.3.7.7s-.3.7-.7.7h-.6Z"/>
        <path class="cls-5" d="M13.6,8.6h.7c.4,0,.7.3.7.7s-.3.7-.7.7h-1.4c-.4,0-.7-.3-.7-.7s.3-.7.7-.7h.7"/>
        <path class="cls-5" d="M5.4,5.3h.7c.4,0,.7.3.7.7s-.3.7-.7.7h-1.3c-.4,0-.7-.3-.7-.7s.3-.7.7-.7h.6Z"/>
        <path class="cls-5" d="M9.5,6.6h-.7c-.4,0-.7-.3-.7-.7s.3-.7.7-.7h1.3c.4,0,.7.3.7.7s-.3.7-.7.7h-.6Z"/>
        <path class="cls-5" d="M13.6,5.3h.7c.4,0,.7.3.7.7s-.3.7-.7.7h-1.4c-.4,0-.7-.3-.7-.7s.3-.7.7-.7h.7"/>
        <path class="cls-4" d="M13.6,23.9v-3.9s0-.6.4-.9c.4-.4,1-.3,1-.3h3.7"/>
        <line class="cls-4" x1="13.6" y1="23.9" x2="18.5" y2="18.8"/>
        <line class="cls-4" x1="1.6" y1="23.9" x2="14.2" y2="23.9"/>
      </g>
    </g>
    <line class="cls-3" x1="5.5" y1="20.8" x2="8.3" y2="17.5"/>
    <line class="cls-3" x1="5.5" y1="20.8" x2="4.2" y2="19.2"/>
  </g>
</svg>