<?xml version="1.0" encoding="UTF-8"?>
<svg id="Ebene_2" data-name="Ebene 2" xmlns="http://www.w3.org/2000/svg" xmlns:xlink="http://www.w3.org/1999/xlink" viewBox="0 0 48.5 50.2">
  <defs>
    <style>
      .cls-1 {
        clip-path: url(#clippath);
      }

      .cls-2 {
        stroke-width: 0px;
      }

      .cls-2, .cls-3, .cls-4, .cls-5, .cls-6 {
        fill: none;
      }

      .cls-3, .cls-4 {
        stroke-width: 2.7px;
      }

      .cls-3, .cls-4, .cls-5, .cls-6 {
        stroke: #ffea43;
        stroke-linecap: round;
        stroke-linejoin: round;
      }

      .cls-7 {
        clip-path: url(#clippath-1);
      }

      .cls-8 {
        clip-path: url(#clippath-2);
      }

      .cls-4 {
        stroke-dasharray: 0 0 0 0 0 0 0 5.5;
      }

      .cls-5 {
        stroke-width: 1.4px;
      }

      .cls-6 {
        stroke-width: 1.5px;
      }
    </style>
    <clipPath id="clippath">
      <rect class="cls-2" width="48.5" height="50.2"/>
    </clipPath>
    <clipPath id="clippath-1">
      <rect class="cls-2" width="48.5" height="50.2"/>
    </clipPath>
    <clipPath id="clippath-2">
      <rect class="cls-2" width="48.5" height="50.2"/>
    </clipPath>
  </defs>
  <g id="Ebene_1-2" data-name="Ebene 1">
    <g class="cls-1">
      <path class="cls-6" d="M41.2,17.8v18.4c0,2.8-2.3,5.1-5.1,5.1H5.8c-2.8,0-5.1-2.3-5.1-5.1v-20.2c0-2.8,2.3-5.1,5.1-5.1h10.5M12.3,49.4h18"/>
    </g>
    <line class="cls-5" x1="21" y1="40.4" x2="21" y2="15.6"/>
    <g class="cls-7">
      <g>
        <path class="cls-5" d="M31.1,21.4c1.7,0,3.1,1.4,3.1,3.1s-1.4,3.1-3.1,3.1-3.1-1.4-3.1-3.1,1.4-3.1,3.1-3.1Z"/>
        <path class="cls-5" d="M24.8,36.8c0-1.3,1.1-6.1,6.3-6.1s6.2,4.8,6.2,6.1"/>
        <path class="cls-5" d="M7,40c.3-1,1-3.5,4.6-3.5s4.4,2.5,4.6,3.5"/>
        <circle class="cls-5" cx="11.6" cy="32.2" r="2.3"/>
        <line class="cls-5" x1="20.3" y1="26" x2="2" y2="26"/>
        <path class="cls-5" d="M7,25.4c.3-1,1-3.5,4.6-3.5s4.4,2.5,4.6,3.5"/>
        <circle class="cls-5" cx="11.6" cy="17.7" r="2.3"/>
        <path class="cls-6" d="M27.9.8h17c1.6,0,2.8,1.2,2.8,2.8v8.3c0,1.5-1.3,2.8-2.8,2.8h-10l-2.4,3.6-2.8-3.6h-1.7c-1.6,0-2.8-1.2-2.8-2.8V3.6c0-1.5,1.3-2.8,2.8-2.8h-.1Z"/>
      </g>
    </g>
    <line class="cls-4" x1="36.9" y1="7.9" x2="39.6" y2="7.9"/>
    <path class="cls-3" d="M42.4,7.9h0M31.3,7.9h0"/>
    <g class="cls-8">
      <path class="cls-5" d="M21,9.7c.7,0,1.4.6,1.4,1.4s-.6,1.4-1.4,1.4-1.4-.6-1.4-1.4.6-1.4,1.4-1.4Z"/>
    </g>
  </g>
</svg>