<?xml version="1.0" encoding="UTF-8"?>
<svg id="Ebene_2" data-name="Ebene 2" xmlns="http://www.w3.org/2000/svg" xmlns:xlink="http://www.w3.org/1999/xlink" viewBox="0 0 25.8 23.1">
  <defs>
    <style>
      .cls-1 {
        clip-path: url(#clippath);
      }

      .cls-2, .cls-3 {
        fill: none;
      }

      .cls-2, .cls-4 {
        stroke-width: 0px;
      }

      .cls-3 {
        stroke: #ffea43;
        stroke-linecap: round;
        stroke-linejoin: round;
        stroke-width: 1.5px;
      }

      .cls-4 {
        fill: #ffea43;
      }
    </style>
    <clipPath id="clippath">
      <rect class="cls-2" width="25.8" height="23.1"/>
    </clipPath>
  </defs>
  <g id="Ebene_1-2" data-name="Ebene 1">
    <g class="cls-1">
      <g>
        <path class="cls-3" d="M18.4.8v2.7M7.5.8v2.7M.8,7.5c0-2.2,1.8-4.1,4.1-4.1h16.2c2.2,0,4.1,1.8,4.1,4.1v10.8c0,2.2-1.8,4.1-4.1,4.1H4.9c-2.2,0-4.1-1.8-4.1-4.1V7.5Z"/>
        <path class="cls-4" d="M13,7.5c.7,0,1.4.6,1.4,1.4s-.6,1.4-1.4,1.4-1.4-.6-1.4-1.4.6-1.4,1.4-1.4"/>
        <path class="cls-2" d="M13,7.5c.7,0,1.4.6,1.4,1.4s-.6,1.4-1.4,1.4-1.4-.6-1.4-1.4.6-1.4,1.4-1.4Z"/>
        <path class="cls-4" d="M18.4,7.5c.7,0,1.4.6,1.4,1.4s-.6,1.4-1.4,1.4-1.4-.6-1.4-1.4.6-1.4,1.4-1.4"/>
        <path class="cls-2" d="M18.4,7.5c.7,0,1.4.6,1.4,1.4s-.6,1.4-1.4,1.4-1.4-.6-1.4-1.4.6-1.4,1.4-1.4Z"/>
        <path class="cls-4" d="M7.5,7.5c.7,0,1.4.6,1.4,1.4s-.6,1.4-1.4,1.4-1.4-.6-1.4-1.4.6-1.4,1.4-1.4"/>
        <path class="cls-2" d="M7.5,7.5c.7,0,1.4.6,1.4,1.4s-.6,1.4-1.4,1.4-1.4-.6-1.4-1.4.6-1.4,1.4-1.4Z"/>
        <path class="cls-4" d="M7.5,12.9c.7,0,1.4.6,1.4,1.4s-.6,1.4-1.4,1.4-1.4-.6-1.4-1.4.6-1.4,1.4-1.4"/>
        <path class="cls-2" d="M7.5,12.9c.7,0,1.4.6,1.4,1.4s-.6,1.4-1.4,1.4-1.4-.6-1.4-1.4.6-1.4,1.4-1.4Z"/>
      </g>
    </g>
  </g>
</svg>