<?xml version="1.0" encoding="UTF-8"?>
<svg id="Ebene_2" data-name="Ebene 2" xmlns="http://www.w3.org/2000/svg" xmlns:xlink="http://www.w3.org/1999/xlink" viewBox="0 0 19.7 23.4">
  <defs>
    <style>
      .cls-1 {
        clip-path: url(#clippath);
      }

      .cls-2 {
        stroke-width: 0px;
      }

      .cls-2, .cls-3, .cls-4 {
        fill: none;
      }

      .cls-3, .cls-4 {
        stroke: #ffea43;
        stroke-width: 1.3px;
      }

      .cls-4 {
        stroke-linecap: round;
        stroke-linejoin: round;
      }
    </style>
    <clipPath id="clippath">
      <rect class="cls-2" width="19.7" height="23.4"/>
    </clipPath>
  </defs>
  <g id="Ebene_1-2" data-name="Ebene 1">
    <g class="cls-1">
      <g>
        <path class="cls-4" d="M.6,17.9c0,2.5,1.8,4.9,4.9,4.9s4.9-2.5,4.9-4.9v-3.7M1.8,3.1c-.2,3.7,1.2,11.1,8.6,11.1s8.8-7.4,8.6-11.1"/>
        <path class="cls-3" d="M19,3.1c0,1.4-1.1,2.5-2.5,2.5s-2.5-1.1-2.5-2.5,1.1-2.5,2.5-2.5,2.5,1.1,2.5,2.5ZM4.3.7c1.4,0,2.5,1.1,2.5,2.5s-1.1,2.5-2.5,2.5-2.5-1.1-2.5-2.5S2.9.7,4.3.7Z"/>
      </g>
    </g>
  </g>
</svg>