<?xml version="1.0" encoding="UTF-8"?>
<svg id="Ebene_2" data-name="Ebene 2" xmlns="http://www.w3.org/2000/svg" xmlns:xlink="http://www.w3.org/1999/xlink" viewBox="0 0 26.5 26.5">
  <defs>
    <style>
      .cls-1 {
        clip-path: url(#clippath);
      }

      .cls-2 {
        fill: none;
      }

      .cls-2, .cls-3 {
        stroke-width: 0px;
      }

      .cls-3 {
        fill: #ffea43;
      }
    </style>
    <clipPath id="clippath">
      <rect class="cls-2" width="26.5" height="26.5"/>
    </clipPath>
  </defs>
  <g id="Ebene_1-2" data-name="Ebene 1">
    <g class="cls-1">
      <g>
        <path class="cls-3" d="M25.2,10.9v14c0,.2,0,.3-.3.3h-2.1c-.2,0-.3,0-.3-.3v-14q0-.3.3-.3h2c.2,0,.3,0,.3.3M21.2,4.3v20.6c0,.2,0,.3-.3.3h-4.1c-.2,0-.3,0-.3-.3v-4.8c0-.6-.2-.8-.9-.8h-4.9c-.7,0-.9.2-.9.9v4.8c0,.2,0,.3-.3.3h-4.1c-.2,0-.3,0-.3-.3V4.5c0-.2,0-.3.3-.3h2.1c.2,0,.3,0,.3.3v4.1c0,1.3.9,2.2,2.2,2.2h6.2c1.2,0,2.2-.9,2.2-2.2v-4.1c0-.2,0-.3.3-.3h2.1c.2,0,.3,0,.3.3M17.3,2.1v6.4c0,.5-.3.8-.8.8h-6.4c-.5,0-.8-.2-.8-.8V2.1c0-.5.2-.8.8-.8h6.4c.5,0,.8.2.8.8M11.2,24.9v-4.2q0-.2.2-.2h3.5q.2,0,.2.2v4.2q0,.2-.2.2h-3.5q-.2,0-.2-.2M4,10.8v14c0,.2,0,.3-.3.3H1.7q-.3,0-.3-.3v-14.1q0-.2.2-.2h2.2q.2,0,.2.3M26.5,10.1c0-.5-.2-.8-.8-.8h-2.9c-.2,0-.3,0-.3-.3V3.5c0-.6-.2-.8-.8-.8h-3.1c-.2-.1,0-.4,0-.6,0-1.1-.8-1.9-1.9-1.9h-6.7c-.9,0-1.7.6-1.9,1.5v.8q0,.3-.3.3h-2.8c-.7,0-.9.2-.9.9v5.4c0,.3,0,.4-.3.4H1.1c-.7,0-.9.2-.9.9v15.3c0,.7.2.9.9.9h24.7c.6,0,.8-.2.8-.8v-15.6"/>
        <path class="cls-3" d="M15.9,16.5c0,.4.3.6.6.7h1.3c.4,0,.7-.3.7-.7s-.3-.6-.6-.6h-1.3c-.4,0-.6.3-.6.6M11.9,16.5c0,.4.2.7.6.7h1.5c.4,0,.6-.3.6-.7,0-.3-.3-.6-.6-.6h-1.4c-.4,0-.6.3-.6.6M14.6,13.2c0-.4-.3-.6-.7-.7h-1.3c-.4,0-.7.3-.7.7s.3.6.7.7h1.2c.4,0,.7-.3.7-.7M8,16.5c0,.4.2.7.6.7h1.5c.4,0,.6-.3.6-.7,0-.3-.3-.6-.6-.6h-1.4c-.4,0-.6.3-.6.6M10.6,13.2c0-.4-.3-.6-.7-.7h-1.2c-.4,0-.7.3-.7.7s.3.6.7.7h1.3c.4,0,.7-.3.7-.7M18.5,13.2c0-.4-.2-.6-.7-.7h-1.2c-.4,0-.7.3-.7.7s.3.6.6.7h1.3c.4,0,.6-.3.7-.6"/>
        <path class="cls-3" d="M14,6.7h0v-.5q0-.2.2-.2h1c.5,0,.8-.3.8-.7s-.3-.6-.7-.7h-1q-.2,0-.2-.2v-1c0-.4-.3-.7-.6-.8-.4,0-.7.3-.7.8v1q0,.2-.2.2h-1c-.5,0-.8.3-.8.7s.3.7.8.7h1q.2,0,.2.2v1.1c0,.4.3.7.7.7s.6-.3.7-.7v-.6"/>
      </g>
    </g>
  </g>
</svg>