<?xml version="1.0" encoding="UTF-8"?>
<svg id="Ebene_2" data-name="Ebene 2" xmlns="http://www.w3.org/2000/svg" xmlns:xlink="http://www.w3.org/1999/xlink" viewBox="0 0 20.8 29.3">
  <defs>
    <style>
      .cls-1 {
        clip-path: url(#clippath);
      }

      .cls-2 {
        fill: none;
      }

      .cls-2, .cls-3 {
        stroke-width: 0px;
      }

      .cls-3 {
        fill: #ffea43;
      }
    </style>
    <clipPath id="clippath">
      <rect class="cls-2" width="20.8" height="29.3"/>
    </clipPath>
  </defs>
  <g id="Ebene_1-2" data-name="Ebene 1">
    <g class="cls-1">
      <g>
        <path class="cls-3" d="M17.2,3c0,.6-.5,1-1,1-.6,0-1-.5-1-1,0-.6.5-1,1-1,.6,0,1,.5,1,1M12.1,11.3c.7-1.1.4-2.6-.6-3.4-1-.8-2.5-.7-3.5.2-.9.9-1,2.4-.2,3.5.1.2.2.3,0,.4-.1.3-.1.6-.1.8v1.2c-1.6-.5-2.8-2.8-2.6-4.8.3-2.4,2.3-4.1,4.6-4.1s4.3,1.6,4.7,3.9-1,4.3-2.6,5v-1.7c-.2-.5,0-.8.2-1.2M8.6,9.3c.3-.5.7-.8,1.3-.8s1,.3,1.3.8.2,1-.1,1.5c0,.1-.2.2-.4.1-.6-.3-1.2-.3-1.7,0-.2,0-.3,0-.3-.1-.3-.5-.3-1,0-1.5M20.7,21.9c0-1.4-1.5-2.3-2.8-1.8q-.2,0-.3-.1c-.6-1.3-2.1-1.6-3.2-.8q-.2.1-.4,0l-.2-.1c.1,0,.3-.1.4-.2,3.2-1.7,5.1-4.4,5.5-8,.3-2.4-.3-4.5-1.7-6.5v-.4c.2-.3.3-.7.3-1,0-.9-.6-1.8-1.5-2.1-.9-.3-1.9,0-2.4.8s-.5,1.8,0,2.5c.6.8,1.5,1.1,2.4.8q.3,0,.5.2c1.2,2,1.6,4.1,1.2,6.3-.6,3.3-3.2,6.1-6.5,6.9q-.2,0-.2-.2v-2.6c0-.2,0-.3.2-.3,2.4-1,3.8-3.4,3.6-6-.3-3.5-3.8-5.9-7.3-5-2.4.6-4.2,2.7-4.3,5.1-.2,2.6,1.1,4.9,3.5,5.9.2,0,.2.1.2.3v8.1c-.2-.4-.5-.8-.7-1.2-.5-.7-1.4-1.1-2.2-.9-1.4.3-2.1,1.8-1.4,3.1.7,1.4,1.3,2.7,2,4,.1.2.2.4.4.5h.3c.5-.2.6-.5.4-.9,0,0,0-.2-.1-.3-.5-1-1-2.1-1.5-3.1-.2-.3-.3-.7-.4-1-.2-.6.2-1.2.8-1.2.4,0,.6.2.8.5.3.5.6,1,.9,1.5.3.4.5.8.8,1.2.2.2.4.4.7.4s.5-.3.6-.6v-13.1c0-.4.3-.8.8-.8.4,0,.8.3.8.7v11.1c.1.3.4.5.7.4.3,0,.5-.3.6-.6v-2.9c0-.5.3-.8.8-.8.4,0,.8.3.8.7v3.2c0,.4.2.6.5.7.3,0,.6-.1.7-.5v-3.2c0-.3.3-.6.6-.7.3,0,.6,0,.9.3.1.2.2.4.1.6v2.9c0,.5.3.8.7.8s.6-.3.6-.8v-2c.1-.4.4-.6.8-.6s.7.3.8.7v6.9c0,.5,0,.6.5.7h.3c.2-.1.4-.3.4-.6v-6.9"/>
        <path class="cls-3" d="M2.6,16.9c0-.6.5-1,1-1,.6,0,1,.4,1,1s-.5,1-1,1c-.6,0-1-.5-1-1M9.9.3C9.8.1,9.6,0,9.3,0,8.7,0,8,.1,7.4.3.8,2-2.2,9.8,1.6,15.5c.1.2,0,.3,0,.4-.4.8-.3,1.8.3,2.4.6.7,1.5.9,2.4.6.8-.3,1.4-1.1,1.4-2,0-1.5-1.5-2.6-2.9-2.1-.2,0-.3,0-.4-.1-.8-1.2-1.3-2.6-1.4-4-.2-2.8.7-5.2,2.7-7.2,1.5-1.5,3.4-2.2,5.5-2.4.2,0,.4,0,.5-.3.1-.2.1-.4,0-.6"/>
      </g>
    </g>
  </g>
</svg>