<?xml version="1.0" encoding="UTF-8"?>
<svg id="Ebene_2" data-name="Ebene 2" xmlns="http://www.w3.org/2000/svg" xmlns:xlink="http://www.w3.org/1999/xlink" viewBox="0 0 160.51 55.76">
  <defs>
    <style>
      .cls-1 {
        clip-path: url(#clippath);
      }

      .cls-2 {
        fill: none;
      }

      .cls-2, .cls-3 {
        stroke-width: 0px;
      }

      .cls-3 {
        fill: #83d0f5;
      }
    </style>
    <clipPath id="clippath">
      <rect class="cls-2" width="160.51" height="55.76"/>
    </clipPath>
  </defs>
  <g id="Ebene_2-2" data-name="Ebene 2">
    <g class="cls-1">
      <path class="cls-3" d="M13.42,13.86c3.06-3.06,3.05-8.03-.03-11.11-3.07-3.07-8.05-3.09-11.11-.03s-3.05,8.03.03,11.11c3.07,3.07,8.05,3.09,11.11.03"/>
      <path class="cls-3" d="M25.55,28.21c2.19-2.19,2.18-5.74-.02-7.93-2.2-2.2-5.75-2.2-7.93-.02-2.19,2.19-2.18,5.74.02,7.93,2.2,2.2,5.75,2.2,7.93.02"/>
      <path class="cls-3" d="M4.44,41.02c-1.75-1.75-1.74-4.59.01-6.35,1.76-1.76,4.6-1.76,6.35-.02,1.75,1.75,1.74,4.59-.02,6.35-1.76,1.76-4.6,1.76-6.35.02"/>
      <path class="cls-3" d="M93.2,54.32h3.84l-4.95-6.29,4.55-4.63h-3.78l-4.63,4.38v-8.53h-3.17v15.06h3.17v-2.78l1.52-1.5,3.45,4.28ZM78.3,54.48c2.29,0,4.1-1.02,4.89-2.76l-2.46-1.34c-.59,1.06-1.46,1.5-2.46,1.5-1.6,0-2.86-1.12-2.86-3.02s1.26-3.02,2.86-3.02c1,0,1.87.47,2.46,1.5l2.46-1.32c-.79-1.79-2.6-2.78-4.89-2.78-3.55,0-6.09,2.33-6.09,5.62s2.54,5.62,6.09,5.62M64.7,52.35c-1.12,0-1.79-.53-1.79-1.32,0-.73.47-1.28,1.95-1.28h2.17v1.12c-.37.99-1.28,1.48-2.33,1.48M64.94,43.23c-1.75,0-3.51.47-4.71,1.32l1.14,2.21c.79-.63,1.99-1.01,3.15-1.01,1.71,0,2.52.79,2.52,2.15h-2.52c-3.33,0-4.69,1.34-4.69,3.27s1.52,3.31,4.08,3.31c1.6,0,2.74-.53,3.33-1.52v1.36h2.96v-6.23c0-3.31-1.93-4.85-5.26-4.85M54.9,44.84v-1.44h-3.03v10.92h3.17v-5.16c0-2.09,1.16-3.05,2.9-3.05.24,0,.45.02.71.04v-2.92c-1.69,0-2.98.55-3.76,1.6M44.04,54.32h3.29v-11.53h4.55v-2.68h-12.38v2.68h4.55v11.53Z"/>
      <path class="cls-3" d="M155.99,24.06c-1.48,0-2.76.51-3.61,1.44v-1.28h-3.02v10.92h3.17v-5.4c0-2.01,1.1-2.94,2.62-2.94,1.4,0,2.21.81,2.21,2.58v5.76h3.17v-6.25c0-3.33-1.95-4.83-4.53-4.83M141.23,32.71c-1.58,0-2.8-1.14-2.8-3.02s1.22-3.03,2.8-3.03,2.78,1.14,2.78,3.03-1.2,3.02-2.78,3.02M141.23,35.31c3.47,0,5.99-2.34,5.99-5.62s-2.52-5.62-5.99-5.62-6.01,2.34-6.01,5.62,2.54,5.62,6.01,5.62M130.01,35.15h3.17v-10.92h-3.17v10.92ZM131.6,22.7c1.18,0,1.97-.77,1.97-1.83,0-.97-.79-1.7-1.97-1.7s-1.97.77-1.97,1.77.79,1.77,1.97,1.77M127.44,32.39c-.35.26-.81.41-1.28.41-.85,0-1.36-.51-1.36-1.44v-4.45h2.72v-2.44h-2.72v-2.66h-3.17v2.66h-1.68v2.44h1.68v4.49c0,2.6,1.5,3.92,4.08,3.92.97,0,1.93-.22,2.58-.69l-.85-2.23ZM113,33.18c-1.12,0-1.79-.53-1.79-1.32,0-.73.47-1.28,1.95-1.28h2.17v1.12c-.37.99-1.28,1.48-2.33,1.48M113.24,24.06c-1.75,0-3.51.47-4.71,1.32l1.14,2.21c.79-.63,1.99-1.02,3.15-1.02,1.71,0,2.52.79,2.52,2.15h-2.52c-3.33,0-4.69,1.34-4.69,3.27s1.52,3.31,4.08,3.31c1.6,0,2.74-.53,3.33-1.52v1.36h2.96v-6.23c0-3.31-1.93-4.85-5.26-4.85M100.03,32.71c-1.58,0-2.8-1.14-2.8-3.02s1.22-3.03,2.8-3.03,2.78,1.14,2.78,3.03-1.22,3.02-2.78,3.02M102.75,20.08v5.3c-.79-.89-1.93-1.32-3.27-1.32-3.08,0-5.46,2.19-5.46,5.62s2.38,5.62,5.46,5.62c1.46,0,2.62-.47,3.41-1.42v1.26h3.02v-15.06h-3.17ZM87.41,24.06c-1.48,0-2.76.51-3.61,1.44v-1.28h-3.03v10.92h3.17v-5.4c0-2.01,1.1-2.94,2.62-2.94,1.4,0,2.21.81,2.21,2.58v5.76h3.17v-6.25c0-3.33-1.95-4.83-4.53-4.83M74.73,24.23v5.4c0,2.01-1.06,2.94-2.52,2.94s-2.21-.81-2.21-2.64v-5.7h-3.17v6.17c0,3.37,1.93,4.91,4.67,4.91,1.34,0,2.56-.51,3.39-1.46v1.3h3v-10.92h-3.17ZM58.83,32.71c-1.58,0-2.8-1.14-2.8-3.02s1.22-3.03,2.8-3.03,2.78,1.14,2.78,3.03-1.2,3.02-2.78,3.02M58.83,35.31c3.47,0,5.99-2.34,5.99-5.62s-2.52-5.62-5.99-5.62-6.01,2.34-6.01,5.62,2.54,5.62,6.01,5.62M51.83,23.58v-2.64h-10.74v14.21h3.29v-5.18h6.58v-2.64h-6.58v-3.76h7.45Z"/>
      <path class="cls-3" d="M117.99,15.97h3.17V.91h-3.17v15.06ZM109.69,14.01c-1.12,0-1.79-.53-1.79-1.32,0-.73.47-1.28,1.95-1.28h2.17v1.12c-.37.99-1.28,1.48-2.33,1.48M109.94,4.89c-1.75,0-3.51.47-4.71,1.32l1.14,2.21c.79-.63,1.99-1.01,3.15-1.01,1.71,0,2.52.79,2.52,2.15h-2.52c-3.33,0-4.69,1.34-4.69,3.27s1.52,3.31,4.08,3.31c1.6,0,2.74-.53,3.33-1.52v1.36h2.96v-6.23c0-3.31-1.93-4.85-5.26-4.85M98.61,16.14c2.29,0,4.1-1.01,4.89-2.76l-2.46-1.34c-.59,1.06-1.46,1.5-2.46,1.5-1.6,0-2.86-1.12-2.86-3.02s1.26-3.03,2.86-3.03c.99,0,1.87.47,2.46,1.5l2.46-1.32c-.79-1.79-2.6-2.78-4.89-2.78-3.55,0-6.09,2.33-6.09,5.62s2.54,5.62,6.09,5.62M87.31,15.97h3.17V5.05h-3.17v10.92ZM88.89,3.53c1.18,0,1.97-.77,1.97-1.83C90.86.73,90.07,0,88.89,0s-1.97.77-1.97,1.77.79,1.77,1.97,1.77M78.54,13.54c-1.58,0-2.8-1.14-2.8-3.02s1.22-3.03,2.8-3.03,2.78,1.14,2.78,3.03-1.22,3.02-2.78,3.02M81.26.91v5.3c-.79-.89-1.93-1.32-3.27-1.32-3.08,0-5.46,2.19-5.46,5.62s2.38,5.62,5.46,5.62c1.46,0,2.62-.47,3.41-1.42v1.26h3.03V.91h-3.17ZM65.42,7.29c1.42,0,2.46.89,2.68,2.27h-5.38c.22-1.4,1.26-2.27,2.7-2.27M71.09,10.55c0-3.51-2.48-5.66-5.68-5.66s-5.83,2.35-5.83,5.62,2.46,5.62,6.23,5.62c1.97,0,3.49-.61,4.51-1.77l-1.69-1.83c-.75.71-1.58,1.06-2.74,1.06-1.66,0-2.82-.83-3.13-2.19h8.26c.02-.26.06-.61.06-.85M57.11,15.97l-.04-14.21h-2.7l-5.24,8.83-5.32-8.83h-2.72v14.21h3.09V7.63l4.16,6.84h1.48l4.18-7.02.02,8.53h3.08Z"/>
      <path class="cls-3" d="M159.63,47.77v2.67h-3.57v-2.67h-.89v6.21h.89v-2.77h3.57v2.77h.89v-6.21h-.89ZM151.32,54.05c.97,0,1.8-.34,2.37-.97l-.58-.56c-.48.51-1.06.75-1.75.75-1.4,0-2.44-1.01-2.44-2.39s1.04-2.39,2.44-2.39c.68,0,1.27.23,1.75.74l.58-.56c-.57-.64-1.4-.97-2.36-.97-1.89,0-3.29,1.34-3.29,3.18s1.4,3.18,3.28,3.18M146.39,53.98v-6.21h-.74l-2.56,4.36-2.59-4.36h-.73v6.21h.85v-4.5l2.25,3.74h.41l2.25-3.77v4.53h.86ZM135.1,54.05c1.64,0,2.63-.95,2.63-2.75v-3.53h-.86v3.5c0,1.38-.64,2-1.76,2s-1.75-.62-1.75-2v-3.5h-.89v3.53c0,1.8.99,2.75,2.63,2.75M128.2,49.28l-1.62,3.76-1.64-3.76h-.89l2.08,4.69-.15.33c-.23.54-.49.73-.9.73-.32,0-.61-.12-.84-.35l-.36.64c.29.28.75.43,1.21.43.72,0,1.26-.31,1.68-1.3l2.28-5.17h-.83ZM121.06,53.29c-.9,0-1.58-.66-1.58-1.66s.68-1.65,1.58-1.65,1.59.65,1.59,1.65-.68,1.66-1.59,1.66M121.13,49.23c-.67,0-1.25.25-1.64.75v-2.59h-.85v6.58h.82v-.75c.38.53.99.8,1.68.8,1.38,0,2.38-.97,2.38-2.4s-1-2.4-2.38-2.4"/>
    </g>
  </g>
</svg>